<svg xmlns="http://www.w3.org/2000/svg" viewBox="0 0 64 64" fill="none">
  <!-- Piano pozadí -->
  <rect width="64" height="64" rx="12" fill="#b51f65"/>

  <!-- Klavírní klávesy -->
  <!-- Bílé klávesy -->
  <rect x="8" y="20" width="7" height="32" rx="1" fill="white"/>
  <rect x="16" y="20" width="7" height="32" rx="1" fill="white"/>
  <rect x="24" y="20" width="7" height="32" rx="1" fill="white"/>
  <rect x="32" y="20" width="7" height="32" rx="1" fill="white"/>
  <rect x="40" y="20" width="7" height="32" rx="1" fill="white"/>
  <rect x="48" y="20" width="7" height="32" rx="1" fill="white"/>

  <!-- Černé klávesy -->
  <rect x="12" y="20" width="5" height="18" rx="0.5" fill="#1e1e1e"/>
  <rect x="20" y="20" width="5" height="18" rx="0.5" fill="#1e1e1e"/>
  <rect x="36" y="20" width="5" height="18" rx="0.5" fill="#1e1e1e"/>
  <rect x="44" y="20" width="5" height="18" rx="0.5" fill="#1e1e1e"/>
  <rect x="52" y="20" width="5" height="18" rx="0.5" fill="#1e1e1e"/>

  <!-- Piano stín/hloubka -->
  <rect x="8" y="52" width="48" height="3" rx="1" fill="rgba(0,0,0,0.2)"/>

  <!-- Hudební nota akcent -->
  <circle cx="54" cy="14" r="6" fill="rgba(255,215,0,0.9)"/>
  <ellipse cx="54" cy="14" rx="4" ry="3" fill="#1e1e1e"/>
  <rect x="58" y="8" width="1.5" height="8" fill="#1e1e1e"/>
</svg>
